# xmcd
#
# Track frame offsets:
# 150
# 15718
# 37534
# 54912
# 71994
# 86278
# 106658
# 123115
# 136633
# 154581
# 167897
#
# Disc length: 2454 seconds
#
#
# Revision: 0
# Processed by: cddbd v1.5.1PL0 Copyright (c) Steve Scherf et al.
# Submitted via: FreeRIP 2.92 
#
DISCID=7509940b
DTITLE=Jadson and Milton - Acústico vol.1
DYEAR=2005
DGENRE=Sertanejo
TTITLE0=Saudade
TTITLE1=Talismã
TTITLE2=Só Pro Meu Prazer
TTITLE3=Um Sonho de Amor
TTITLE4=Aguenta Coração
TTITLE5=A Força do Amor
TTITLE6=Ainda é Tempo
TTITLE7=O Amor Está Aqui
TTITLE8=Se Não Tivesse Ido
TTITLE9=Depois Que Você Matar Meu Coração
TTITLE10=Essa Noite Foi Maravilhosa
EXTD=O Primeiro CD ao vivo dos Arianos
EXTT0=
EXTT1=
EXTT2=
EXTT3=
EXTT4=
EXTT5=
EXTT6=
EXTT7=
EXTT8=
EXTT9=
EXTT10=
PLAYORDER=
